<svg height="332pt" viewBox="-2 0 332 332.0764" width="332pt" xmlns="http://www.w3.org/2000/svg"><path d="m101.507812 8.816406c-14.984374-8.335937-94.640624 10.960938-94.640624 10.960938s49.46875 34.972656 64.457031 43.308594c14.984375 8.335937 33.890625 2.941406 42.226562-12.042969 8.335938-14.984375 2.941407-33.890625-12.042969-42.226563zm0 0" fill="#94c1ff"/><path d="m86.359375 73.84375c-6.359375 0-12.648437-1.621094-18.355469-4.796875-15.132812-8.414063-63.042968-42.257813-65.078125-43.699219-2.1875-1.542968-3.265625-4.226562-2.765625-6.851562.503906-2.632813 2.5-4.726563 5.097656-5.355469 19.292969-4.671875 83.488282-19.234375 99.566407-10.292969 18.253906 10.148438 24.839843 33.261719 14.695312 51.515625-4.921875 8.839844-12.988281 15.238281-22.722656 18.011719-3.4375.980469-6.949219 1.46875-10.4375 1.46875zm-62.992187-50.839844c15.613281 10.878906 41.40625 28.625 51.277343 34.113282 5.652344 3.152343 12.199219 3.90625 18.414063 2.125 6.222656-1.773438 11.382812-5.867188 14.527344-11.519532 6.496093-11.675781 2.273437-26.449218-9.398438-32.941406-6.761719-3.785156-41.515625 1.015625-74.820312 8.222656zm0 0" fill="#0e65e5"/><path d="m220.800781 8.816406c14.984375-8.335937 94.640625 10.960938 94.640625 10.960938s-49.46875 34.972656-64.457031 43.308594c-14.984375 8.335937-33.890625 2.941406-42.226563-12.042969-8.332031-14.984375-2.945312-33.890625 12.042969-42.226563zm0 0" fill="#94c1ff"/><g fill="#0e65e5"><path d="m235.945312 73.84375c-3.488281 0-6.996093-.488281-10.441406-1.46875-9.726562-2.773438-17.792968-9.171875-22.710937-18.011719-10.15625-18.261719-3.5625-41.367187 14.683593-51.515625 16.082032-8.945312 80.28125 5.621094 99.574219 10.292969 2.597657.628906 4.59375 2.722656 5.101563 5.355469.5 2.625-.582032 5.304687-2.769532 6.851562-2.03125 1.441406-49.945312 35.289063-65.078124 43.699219-5.710938 3.175781-12 4.796875-18.359376 4.796875zm-2.445312-60.382812c-4.480469 0-7.746094.40625-9.378906 1.320312-11.675782 6.488281-15.890625 21.265625-9.394532 32.941406 3.148438 5.660156 8.300782 9.746094 14.527344 11.519532 6.214844 1.785156 12.761719 1.019531 18.414063-2.125 9.871093-5.488282 35.664062-23.234376 51.277343-34.113282-25.265624-5.46875-51.359374-9.542968-65.445312-9.542968zm0 0"/><path d="m164.839844 99.96875c-.742188 0-1.5-.117188-2.242188-.378906-3.558594-1.234375-5.445312-5.128906-4.207031-8.6875 15.582031-44.886719 77.496094-58.492188 80.128906-59.054688 3.671875-.757812 7.304688 1.582032 8.085938 5.261719.785156 3.683594-1.566407 7.304687-5.253907 8.097656-.566406.121094-57.019531 12.59375-70.066406 50.171875-.976562 2.824219-3.617187 4.589844-6.445312 4.589844zm0 0"/><path d="m283.847656 325.25h-238.019531c-20.988281 0-38.003906-17.015625-38.003906-38.003906v-135.617188c0-20.992187 17.015625-38.003906 38.003906-38.003906h238.019531c20.988282 0 38.003906 17.011719 38.003906 38.003906v135.617188c0 20.988281-17.011718 38.003906-38.003906 38.003906zm0 0"/><path d="m283.847656 332.078125h-238.015625c-24.71875 0-44.832031-20.113281-44.832031-44.835937v-135.613282c0-24.71875 20.113281-44.835937 44.832031-44.835937h238.015625c24.71875 0 44.832032 20.113281 44.832032 44.835937v135.613282c0 24.722656-20.113282 44.835937-44.832032 44.835937zm-238.015625-211.628906c-17.191406 0-31.179687 13.988281-31.179687 31.179687v135.613282c0 17.195312 13.984375 31.183593 31.179687 31.183593h238.015625c17.191406 0 31.179688-13.988281 31.179688-31.183593v-135.613282c0-17.191406-13.988282-31.179687-31.179688-31.179687zm0 0"/><path d="m164.839844 99.96875c-2.828125 0-5.46875-1.765625-6.449219-4.585938-13.085937-37.695312-69.492187-50.054687-70.058594-50.171874-3.691406-.789063-6.046875-4.40625-5.265625-8.09375.777344-3.6875 4.433594-6.019532 8.09375-5.265626 2.632813.558594 64.542969 14.164063 80.125 59.050782 1.238282 3.5625-.648437 7.453125-4.207031 8.6875-.738281.257812-1.5.378906-2.238281.378906zm0 0"/></g><path d="m283.847656 304.769531h-238.019531c-20.988281 0-38.003906-17.015625-38.003906-38.003906v-135.617187c0-20.988282 17.015625-38.003907 38.003906-38.003907h238.019531c20.988282 0 38.003906 17.015625 38.003906 38.003907v135.617187c0 20.988281-17.011718 38.003906-38.003906 38.003906zm0 0" fill="#d7e9ff"/><path d="m283.847656 311.597656h-238.015625c-24.71875 0-44.832031-20.113281-44.832031-44.835937v-135.613281c0-24.71875 20.113281-44.832032 44.832031-44.832032h238.015625c24.71875 0 44.832032 20.113282 44.832032 44.832032v135.613281c0 24.722656-20.113282 44.835937-44.832032 44.835937zm-238.015625-211.628906c-17.191406 0-31.179687 13.988281-31.179687 31.183594v135.613281c0 17.191406 13.984375 31.179687 31.179687 31.179687h238.015625c17.191406 0 31.179688-13.988281 31.179688-31.179687v-135.613281c0-17.195313-13.988282-31.183594-31.179688-31.183594zm0 0" fill="#0e65e5"/><path d="m76.09375 134.101562h34.132812v61.441407h-34.132812zm0 0" fill="#2a8ee6" fill-rule="evenodd"/><path d="m110.226562 202.371094h-34.132812c-3.773438 0-6.828125-3.054688-6.828125-6.828125v-61.441407c0-3.773437 3.054687-6.824218 6.828125-6.824218h34.132812c3.773438 0 6.824219 3.050781 6.824219 6.824218v61.441407c0 3.773437-3.050781 6.828125-6.824219 6.828125zm-27.308593-13.65625h20.480469v-47.785156h-20.480469zm0 0" fill="#0e65e5"/><path d="m219.453125 134.101562h34.132813v61.441407h-34.132813zm0 0" fill="#2a8ee6" fill-rule="evenodd"/><path d="m253.585938 202.371094h-34.132813c-3.773437 0-6.828125-3.054688-6.828125-6.828125v-61.441407c0-3.773437 3.054688-6.824218 6.828125-6.824218h34.132813c3.773437 0 6.824218 3.050781 6.824218 6.824218v61.441407c0 3.773437-3.050781 6.828125-6.824218 6.828125zm-27.308594-13.65625h20.480468v-47.785156h-20.480468zm0 0" fill="#0e65e5"/><path d="m192.144531 250.15625c0-7.539062-12.226562-13.652344-27.304687-13.652344-15.082032 0-27.308594 6.113282-27.308594 13.652344s12.226562 13.652344 27.308594 13.652344c15.078125 0 27.304687-6.113282 27.304687-13.652344zm0 0" fill="#2a8ee6" fill-rule="evenodd"/><path d="m164.839844 270.636719c-19.460938 0-34.132813-8.808594-34.132813-20.480469s14.671875-20.480469 34.132813-20.480469c19.457031 0 34.132812 8.808594 34.132812 20.480469s-14.671875 20.480469-34.132812 20.480469zm0-27.308594c-13.214844 0-20.480469 5.128906-20.480469 6.828125s7.265625 6.828125 20.480469 6.828125c13.210937 0 20.480468-5.128906 20.480468-6.828125s-7.265624-6.828125-20.480468-6.828125zm0 0" fill="#0e65e5"/><path d="m226.277344 318.421875c-3.773438 0-6.824219-3.050781-6.824219-6.824219v-27.308594c0-3.773437 3.050781-6.824218 6.824219-6.824218 3.773437 0 6.828125 3.050781 6.828125 6.824218v27.308594c0 3.773438-3.054688 6.824219-6.828125 6.824219zm0 0" fill="#fff"/><path d="m239.933594 304.769531h-27.308594c-3.773438 0-6.828125-3.054687-6.828125-6.828125 0-3.773437 3.054687-6.824218 6.828125-6.824218h27.308594c3.773437 0 6.824218 3.050781 6.824218 6.824218 0 3.773438-3.050781 6.828125-6.824218 6.828125zm0 0" fill="#fff"/><path d="m28.304688 209.195312c-3.773438 0-6.828126-3.050781-6.828126-6.824218v-75.09375c0-3.773438 3.054688-6.828125 6.828126-6.828125 3.773437 0 6.828124 3.054687 6.828124 6.828125v75.09375c0 3.773437-3.054687 6.824218-6.828124 6.824218zm0 0" fill="#fff"/></svg>