<svg height="496pt" viewBox="-80 0 496 496" width="496pt" xmlns="http://www.w3.org/2000/svg"><path d="m0 440h144v32h-144zm0 0" fill="#c6c5ca"/><path d="m192 440h144v32h-144zm0 0" fill="#c6c5ca"/><path d="m152 352h32v96h-32zm0 0" fill="#c6c5ca"/><path d="m200 456c0 17.671875-14.328125 32-32 32s-32-14.328125-32-32 14.328125-32 32-32 32 14.328125 32 32zm0 0" fill="#f5b866"/><path d="m40 216h256v64h-256zm0 0" fill="#c6c5ca"/><path d="m40 88h256v64h-256zm0 0" fill="#c6c5ca"/><path d="m8 8h320v96h-320zm0 0" fill="#57565c"/><path d="m8 8h288v96h-288zm0 0" fill="#78767f"/><path d="m8 136h320v96h-320zm0 0" fill="#57565c"/><path d="m8 136h288v96h-288zm0 0" fill="#78767f"/><path d="m8 264h320v96h-320zm0 0" fill="#57565c"/><path d="m8 264h288v96h-288zm0 0" fill="#78767f"/><g fill="#c6c5ca"><path d="m72 184c0 8.835938-7.164062 16-16 16s-16-7.164062-16-16 7.164062-16 16-16 16 7.164062 16 16zm0 0"/><path d="m136 184c0 8.835938-7.164062 16-16 16s-16-7.164062-16-16 7.164062-16 16-16 16 7.164062 16 16zm0 0"/><path d="m72 312c0 8.835938-7.164062 16-16 16s-16-7.164062-16-16 7.164062-16 16-16 16 7.164062 16 16zm0 0"/><path d="m136 312c0 8.835938-7.164062 16-16 16s-16-7.164062-16-16 7.164062-16 16-16 16 7.164062 16 16zm0 0"/><path d="m136 56c0 8.835938-7.164062 16-16 16s-16-7.164062-16-16 7.164062-16 16-16 16 7.164062 16 16zm0 0"/><path d="m72 56c0 8.835938-7.164062 16-16 16s-16-7.164062-16-16 7.164062-16 16-16 16 7.164062 16 16zm0 0"/></g><path d="m328 112h-320c-4.414062 0-8-3.585938-8-8v-96c0-4.414062 3.585938-8 8-8h320c4.414062 0 8 3.585938 8 8v96c0 4.414062-3.585938 8-8 8zm-312-16h304v-80h-304zm0 0"/><path d="m288 32h16v16h-16zm0 0"/><path d="m288 64h16v16h-16zm0 0"/><path d="m256 32h16v16h-16zm0 0"/><path d="m256 64h16v16h-16zm0 0"/><path d="m224 32h16v16h-16zm0 0"/><path d="m224 64h16v16h-16zm0 0"/><path d="m192 32h16v16h-16zm0 0"/><path d="m192 64h16v16h-16zm0 0"/><path d="m56 80c-13.230469 0-24-10.769531-24-24s10.769531-24 24-24 24 10.769531 24 24-10.769531 24-24 24zm0-32c-4.40625 0-8 3.59375-8 8s3.59375 8 8 8 8-3.59375 8-8-3.59375-8-8-8zm0 0"/><path d="m120 80c-13.230469 0-24-10.769531-24-24s10.769531-24 24-24 24 10.769531 24 24-10.769531 24-24 24zm0-32c-4.40625 0-8 3.59375-8 8s3.59375 8 8 8 8-3.59375 8-8-3.59375-8-8-8zm0 0"/><path d="m328 240h-320c-4.414062 0-8-3.585938-8-8v-96c0-4.414062 3.585938-8 8-8h320c4.414062 0 8 3.585938 8 8v96c0 4.414062-3.585938 8-8 8zm-312-16h304v-80h-304zm0 0"/><path d="m288 160h16v16h-16zm0 0"/><path d="m288 192h16v16h-16zm0 0"/><path d="m256 160h16v16h-16zm0 0"/><path d="m256 192h16v16h-16zm0 0"/><path d="m224 160h16v16h-16zm0 0"/><path d="m224 192h16v16h-16zm0 0"/><path d="m192 160h16v16h-16zm0 0"/><path d="m192 192h16v16h-16zm0 0"/><path d="m56 208c-13.230469 0-24-10.769531-24-24s10.769531-24 24-24 24 10.769531 24 24-10.769531 24-24 24zm0-32c-4.40625 0-8 3.59375-8 8s3.59375 8 8 8 8-3.59375 8-8-3.59375-8-8-8zm0 0"/><path d="m120 208c-13.230469 0-24-10.769531-24-24s10.769531-24 24-24 24 10.769531 24 24-10.769531 24-24 24zm0-32c-4.40625 0-8 3.59375-8 8s3.59375 8 8 8 8-3.59375 8-8-3.59375-8-8-8zm0 0"/><path d="m328 368h-320c-4.414062 0-8-3.585938-8-8v-96c0-4.414062 3.585938-8 8-8h320c4.414062 0 8 3.585938 8 8v96c0 4.414062-3.585938 8-8 8zm-312-16h304v-80h-304zm0 0"/><path d="m288 288h16v16h-16zm0 0"/><path d="m288 320h16v16h-16zm0 0"/><path d="m256 288h16v16h-16zm0 0"/><path d="m256 320h16v16h-16zm0 0"/><path d="m224 288h16v16h-16zm0 0"/><path d="m224 320h16v16h-16zm0 0"/><path d="m192 288h16v16h-16zm0 0"/><path d="m192 320h16v16h-16zm0 0"/><path d="m56 336c-13.230469 0-24-10.769531-24-24s10.769531-24 24-24 24 10.769531 24 24-10.769531 24-24 24zm0-32c-4.40625 0-8 3.59375-8 8s3.59375 8 8 8 8-3.59375 8-8-3.59375-8-8-8zm0 0"/><path d="m120 336c-13.230469 0-24-10.769531-24-24s10.769531-24 24-24 24 10.769531 24 24-10.769531 24-24 24zm0-32c-4.40625 0-8 3.59375-8 8s3.59375 8 8 8 8-3.59375 8-8-3.59375-8-8-8zm0 0"/><path d="m32 104h16v32h-16zm0 0"/><path d="m288 104h16v32h-16zm0 0"/><path d="m32 232h16v32h-16zm0 0"/><path d="m288 232h16v32h-16zm0 0"/><path d="m168 496c-22.054688 0-40-17.945312-40-40s17.945312-40 40-40 40 17.945312 40 40-17.945312 40-40 40zm0-64c-13.230469 0-24 10.769531-24 24s10.769531 24 24 24 24-10.769531 24-24-10.769531-24-24-24zm0 0"/><path d="m144 360h16v72h-16zm0 0"/><path d="m176 360h16v72h-16zm0 0"/><path d="m0 432h144v16h-144zm0 0"/><path d="m0 464h144v16h-144zm0 0"/><path d="m192 432h144v16h-144zm0 0"/><path d="m192 464h144v16h-144zm0 0"/></svg>