<?xml version="1.0" ?><svg height="400px" version="1.1" viewBox="0 0 400 400" width="400px" xmlns="http://www.w3.org/2000/svg" xmlns:xlink="http://www.w3.org/1999/xlink"><title/><desc/><defs><filter filterUnits="objectBoundingBox" height="200%" id="filter-1" width="200%" x="-50%" y="-50%"><feOffset dx="0" dy="2" in="SourceAlpha" result="shadowOffsetOuter1"/><feGaussianBlur in="shadowOffsetOuter1" result="shadowBlurOuter1" stdDeviation="2"/><feColorMatrix in="shadowBlurOuter1" result="shadowMatrixOuter1" type="matrix" values="0 0 0 0 0   0 0 0 0 0   0 0 0 0 0  0 0 0 0.5 0"/><feMerge><feMergeNode in="shadowMatrixOuter1"/><feMergeNode in="SourceGraphic"/></feMerge></filter><circle cx="50" cy="80" id="path-2" r="30"/><filter filterUnits="objectBoundingBox" height="200%" id="filter-3" width="200%" x="-50%" y="-50%"><feOffset dx="0" dy="2" in="SourceAlpha" result="shadowOffsetOuter1"/><feGaussianBlur in="shadowOffsetOuter1" result="shadowBlurOuter1" stdDeviation="2"/><feColorMatrix in="shadowBlurOuter1" type="matrix" values="0 0 0 0 0   0 0 0 0 0   0 0 0 0 0  0 0 0 0.5 0"/></filter></defs><g fill="none" fill-rule="evenodd" id="Page-1" stroke="none" stroke-width="1"><g id="key"><ellipse cx="200" cy="200" fill="#82A3A1" id="background" rx="200" ry="200"/><g filter="url(#filter-1)" transform="translate(200.121433, 199.532032) rotate(-45.000000) translate(-200.121433, -199.532032) translate(25.621433, 119.532032)"><circle cx="80" cy="80" fill="#F2ECD2" id="Combined-Shape" r="80"/><g id="Oval-22"><use fill="black" fill-opacity="1" filter="url(#filter-3)" xlink:href="#path-2"/><use fill="#82A3A1" fill-rule="evenodd" xlink:href="#path-2"/></g><path d="M184.412298,97.6965697 C183.632308,96.9165788 183.630414,95.6538574 184.412298,94.8719728 L209.871973,69.4122985 C210.651964,68.6323076 211.914685,68.6304139 212.69657,69.4122985 L238.156244,94.8719728 C238.936235,95.6519637 238.938129,96.9146851 238.156244,97.6965697 L212.69657,123.156244 C211.916579,123.936235 210.653857,123.938129 209.871973,123.156244 L184.412298,97.6965697 L184.412298,97.6965697 Z" fill="#545E75" id="Rectangle-26-Copy-3"/><path d="M243.412298,100.69657 C242.632308,99.9165788 242.630414,98.6538574 243.412298,97.8719728 L268.871973,72.4122985 C269.651964,71.6323076 270.914685,71.6304139 271.69657,72.4122985 L297.156244,97.8719728 C297.936235,98.6519637 297.938129,99.9146851 297.156244,100.69657 L271.69657,126.156244 C270.916579,126.936235 269.653857,126.938129 268.871973,126.156244 L243.412298,100.69657 L243.412298,100.69657 Z" fill="#545E75" id="Rectangle-26-Copy-5"/><path d="M153.412298,107.69657 C152.632308,106.916579 152.630414,105.653857 153.412298,104.871973 L178.871973,79.4122985 C179.651964,78.6323076 180.914685,78.6304139 181.69657,79.4122985 L207.156244,104.871973 C207.936235,105.651964 207.938129,106.914685 207.156244,107.69657 L181.69657,133.156244 C180.916579,133.936235 179.653857,133.938129 178.871973,133.156244 L153.412298,107.69657 L153.412298,107.69657 Z" fill="#545E75" id="Rectangle-26-Copy-2"/><path d="M213.412298,107.69657 C212.632308,106.916579 212.630414,105.653857 213.412298,104.871973 L238.871973,79.4122985 C239.651964,78.6323076 240.914685,78.6304139 241.69657,79.4122985 L267.156244,104.871973 C267.936235,105.651964 267.938129,106.914685 267.156244,107.69657 L241.69657,133.156244 C240.916579,133.936235 239.653857,133.938129 238.871973,133.156244 L213.412298,107.69657 L213.412298,107.69657 Z" fill="#545E75" id="Rectangle-26-Copy-4"/><path d="M272.412298,110.69657 C271.632308,109.916579 271.630414,108.653857 272.412298,107.871973 L297.871973,82.4122985 C298.651964,81.6323076 299.914685,81.6304139 300.69657,82.4122985 L326.156244,107.871973 C326.936235,108.651964 326.938129,109.914685 326.156244,110.69657 L300.69657,136.156244 C299.916579,136.936235 298.653857,136.938129 297.871973,136.156244 L272.412298,110.69657 L272.412298,110.69657 Z" fill="#545E75" id="Rectangle-26-Copy-6"/><path d="M141,54.0065556 C141,51.793796 142.789464,50 144.990311,50 L327.009689,50 C329.213477,50 331.955234,51.5082641 333.142608,53.3830653 L347.857392,76.6169347 C349.040722,78.4853501 349.044766,81.5082641 347.857392,83.3830653 L333.142608,106.616935 C331.959278,108.48535 329.210536,110 327.009689,110 L144.990311,110 C142.786523,110 141,108.204319 141,105.993444 L141,54.0065556 Z" fill="#F2ECD2" id="Rectangle-25"/><path d="M348.448681,78 C348.967592,79.6167089 348.821099,81.5809126 348.013535,83 L156,83 L156,78 L348.448681,78 L348.448681,78 Z" fill="#545E75" id="Combined-Shape"/></g></g></g></svg>